<svg id="Layer_1" data-name="Layer 1" xmlns="http://www.w3.org/2000/svg" viewBox="0 0 1250 1250"><defs><style>.cls-1,.cls-5{fill:#cee6bf;}.cls-2{fill:#bbd1af;}.cls-3{fill:#969f3c;}.cls-4{fill:#406325;}.cls-5{stroke:#cee6bf;stroke-miterlimit:10;stroke-width:29.86px;}.cls-6{fill:#41642f;}</style></defs><title>broccoli-inspector</title><circle class="cls-1" cx="625" cy="625" r="625"/><path class="cls-2" d="M1229.15,785.61q.68-2.58,1.35-5.17.56-2.18,1.1-4.37.77-3.11,1.51-6.23.45-1.91.89-3.82.59-2.56,1.16-5.13t1.1-5.06q.6-2.81,1.18-5.64.41-2,.81-4,.48-2.47.95-4.94.54-2.9,1.06-5.8.45-2.53.88-5.06.36-2.15.71-4.3.38-2.33.74-4.67.51-3.27,1-6.55.33-2.26.64-4.53t.61-4.57c.19-1.45.36-2.91.54-4.36q.44-3.61.84-7.24.22-2,.44-4.09.25-2.41.48-4.82c.13-1.34.25-2.68.37-4Q1250,653.43,1250,625a632.06,632.06,0,0,0-3.53-66.71L983.89,295.7,946.24,376,753.75,183.51,264.42,795l268.27,268.27-55.35,25L639,1249.84a629.2,629.2,0,0,0,74.28-6h0q4.2-.59,8.37-1.25l.43-.07q4.14-.65,8.26-1.35l.76-.13q8.72-1.49,17.35-3.22l.55-.11q4.09-.82,8.17-1.7l.55-.12q8.61-1.86,17.13-4l.62-.15q4.08-1,8.15-2.07l.21-.05h0c216.26-56.65,386.79-226.24,444.78-442h0C1228.8,787,1229,786.3,1229.15,785.61Z"/><path class="cls-3" d="M806.65,757.91,625,666.11l-181.65,91.8s99.32,149.05,34,330.29c0,0,38.78,27,96.28,14.31,0,0,21.77,17.49,51.4,17.49s51.4-17.49,51.4-17.49c57.5,12.71,96.27-14.31,96.27-14.31C707.33,907,806.65,757.91,806.65,757.91Z"/><circle class="cls-4" cx="338.84" cy="607.31" r="201.84"/><circle class="cls-4" cx="911.16" cy="607.31" r="201.84"/><circle class="cls-4" cx="405.7" cy="441.49" r="201.84"/><circle class="cls-4" cx="844.3" cy="441.49" r="201.84"/><circle class="cls-4" cx="625" cy="331.84" r="201.84"/><circle class="cls-4" cx="625" cy="585.91" r="201.84"/><circle class="cls-5" cx="519.3" cy="838.32" r="93"/><circle class="cls-5" cx="730.7" cy="838.32" r="93"/><path class="cls-1" d="M730.7,925.1a86.78,86.78,0,1,1,86.78-86.78A86.88,86.88,0,0,1,730.7,925.1Z"/><path class="cls-6" d="M730.7,757.76a80.56,80.56,0,1,1-80.56,80.56,80.65,80.65,0,0,1,80.56-80.56m0-12.44a93,93,0,1,0,93,93,93,93,0,0,0-93-93Z"/><circle class="cls-4" cx="730.7" cy="838.32" r="30.72"/><rect class="cls-4" x="818.75" y="822.96" width="30.72" height="30.72" rx="6.14" ry="6.14"/><rect class="cls-4" x="609.64" y="830.64" width="30.72" height="15.36" rx="4.34" ry="4.34"/><path class="cls-1" d="M519.3,925.1a86.78,86.78,0,1,1,86.78-86.78A86.88,86.88,0,0,1,519.3,925.1Z"/><path class="cls-6" d="M519.3,757.76a80.56,80.56,0,1,1-80.56,80.56,80.65,80.65,0,0,1,80.56-80.56m0-12.44a93,93,0,1,0,93,93,93,93,0,0,0-93-93Z"/><circle class="cls-4" cx="519.3" cy="838.32" r="30.72"/><rect class="cls-4" x="400.54" y="822.96" width="30.72" height="30.72" rx="6.14" ry="6.14"/></svg>