<?xml version="1.0" standalone="no"?>
<!DOCTYPE svg PUBLIC "-//W3C//DTD SVG 20010904//EN"
 "http://www.w3.org/TR/2001/REC-SVG-20010904/DTD/svg10.dtd">
<svg version="1.0" xmlns="http://www.w3.org/2000/svg"
 width="548.000000pt" height="548.000000pt" viewBox="0 0 548.000000 548.000000"
 preserveAspectRatio="xMidYMid meet">
<metadata>
Created by potrace 1.11, written by Peter Selinger 2001-2013
</metadata>
<g transform="translate(0.000000,548.000000) scale(0.100000,-0.100000)"
fill="#000000" stroke="none">
<path d="M3316 5219 c-90 -13 -195 -45 -293 -87 l-88 -37 -65 18 c-69 20 -246
28 -330 15 -68 -10 -187 -54 -253 -93 -32 -19 -61 -35 -64 -35 -3 0 -33 -20
-67 -44 -57 -41 -144 -127 -179 -177 -11 -16 -28 -22 -69 -24 -90 -7 -181 -21
-261 -41 -165 -42 -400 -150 -515 -236 -241 -182 -415 -446 -462 -703 -20
-106 -17 -341 5 -415 3 -9 -10 -25 -33 -40 -131 -88 -235 -219 -275 -345 -30
-96 -30 -234 1 -327 55 -166 164 -292 342 -390 47 -25 220 -91 220 -83 0 2 11
0 25 -5 14 -5 46 -12 72 -16 27 -3 57 -9 68 -11 11 -3 98 -6 194 -7 l173 -2
40 -44 c66 -74 89 -100 174 -200 323 -381 362 -434 431 -580 55 -116 101 -262
109 -345 2 -22 7 -47 10 -55 10 -27 4 -234 -10 -308 l-13 -74 30 -44 c65 -99
180 -170 342 -211 80 -21 108 -23 255 -19 91 2 179 7 195 10 178 39 324 93
373 139 19 18 22 28 17 57 -4 19 -9 46 -11 60 -2 14 -6 34 -9 46 -3 12 -7 36
-10 55 -2 19 -9 61 -14 94 -13 89 -5 334 14 421 3 12 7 39 11 60 13 86 68 215
160 371 62 107 165 261 204 307 56 67 98 113 214 240 64 69 94 95 105 90 18
-7 101 -30 146 -39 63 -14 270 -13 335 1 278 60 514 354 513 639 0 53 -10 144
-18 167 -2 7 -7 24 -9 38 -12 61 -49 170 -81 238 -19 41 -35 79 -35 84 0 6 22
40 49 77 26 36 60 86 74 111 72 126 106 331 72 445 -16 57 -89 214 -104 225
-3 3 -26 30 -51 60 -149 186 -340 303 -567 347 l-88 17 -23 71 c-27 83 -88
184 -146 241 -124 122 -326 240 -483 282 -77 21 -249 26 -347 11z m-971 -2719
c9 -36 19 -76 22 -90 2 -14 9 -45 14 -69 17 -76 23 -153 22 -276 -1 -213 -29
-241 -158 -164 -140 84 -281 216 -406 381 l-59 76 33 40 c17 21 48 64 67 94
l35 56 114 -3 c104 -2 265 15 279 30 10 10 20 -9 37 -75z m1448 -75 c20 -30
37 -59 37 -64 0 -9 -114 -104 -255 -211 -71 -54 -156 -100 -186 -100 -25 0
-56 90 -64 190 -6 70 -8 151 -2 156 3 3 25 7 49 9 41 4 67 7 151 21 21 3 75
16 120 29 45 13 89 24 97 24 9 1 32 -24 53 -54z"/>
</g>
</svg>
